<svg id="Capa_1" enable-background="new 0 0 504.621 504.621" height="512" viewBox="0 0 504.621 504.621" width="512" xmlns="http://www.w3.org/2000/svg"><g><g><g><path d="m476.75 56.717-42.679-42.679c-8.708-8.708-22.826-8.708-31.534 0l-63.975 63.975 79.624 79.624 58.562-58.562c11.699-11.697 11.699-30.661.002-42.358z" fill="#e5eef9"/><path d="m48.831 471.848 14.295 1.603 56.055-16.807-79.624-79.625-16.807 56.056 3.573 16.922z" fill="#ffcebf"/><path d="m57.19 480.208 14.295 1.602 56.055-16.807-16.718-16.718-56.055 16.806-14.295-1.602z" fill="#ffb09e"/><path d="m17.399 487.161 45.727-13.71c-4.95-4.95-35.406-35.406-40.376-40.376-3.488 11.633-10.46 34.887-13.71 45.727z" fill="#5a5a5a"/><path d="m490.521 70.489-16.718-16.719c8.708 8.708 8.708 22.826 0 31.533l-63.975 63.975 16.718 16.718 63.975-63.975c8.708-8.707 8.708-22.825 0-31.532z" fill="#d5e3f4"/><path d="m184.122 28.008h112.606v455.535h-112.606z" fill="#3c87d0" transform="matrix(-.707 -.707 .707 -.707 229.571 606.643)"/><path d="m216.065 49.457h40.828v434.497h-40.828z" fill="#7bacdf" transform="matrix(-.707 -.707 .707 -.707 215.106 622.512)"/><path d="m330.302 88.558h112.606v42.076h-112.606z" fill="#9c9c9c" transform="matrix(-.707 -.707 .707 -.707 582.48 460.463)"/><path d="m52.469 283.766h455.535v23.643h-455.535z" fill="#0078c8" transform="matrix(.707 -.707 .707 .707 -126.933 284.733)"/><path d="m405.379 137.586h42.076v23.643h-42.076z" fill="#838383" transform="matrix(.707 -.707 .707 .707 19.247 345.283)"/><path d="m54.767 465.092-45.727 13.709-1.053 3.513c-2.724 9.086 5.173 16.984 14.259 14.259l49.24-14.763z" fill="#444"/></g></g><path d="m138.181 465.037 334.218-334.218c2.929-2.93 2.929-7.678 0-10.607-2.929-2.928-7.678-2.928-10.606 0l-12.073 12.073-77.377-77.377 35.566-35.566c5.781-5.782 15.141-5.785 20.926.001l56.451 56.449c5.592 5.59 5.678 14.35.804 20.056-2.69 3.149-2.317 7.884.832 10.574 3.151 2.691 7.884 2.318 10.574-.832 9.892-11.583 9.6-29.203-1.604-40.405l-56.45-56.449c-11.645-11.644-30.493-11.647-42.139 0-2.735 2.735-282.059 282.058-284.795 284.794-2.929 2.93-2.929 7.678 0 10.607 2.929 2.928 7.678 2.928 10.606 0l208.87-208.87 18.263 18.263-281.753 281.752-18.263-18.263 48.135-48.134c2.929-2.93 2.929-7.678 0-10.607-2.929-2.928-7.678-2.928-10.606 0l-53.438 53.438c-.842.842-1.527 1.979-1.876 3.137-.001.004-.003.008-.005.012l-31.571 105.295c-3.84 12.808 5.548 24.613 18.003 24.459l210.942-.58c21.023-.058 34.072-22.88 23.422-41.03-4.789-8.163 1.089-18.439 10.56-18.439h192.549c4.142 0 7.5-3.357 7.5-7.5s-3.358-7.5-7.5-7.5h-192.55c-21.056 0-34.163 22.85-23.497 41.031 4.781 8.147-1.069 18.414-10.525 18.438l-157.663.434c37.108-11.127 22.707-6.809 57.598-17.27 1.043-.303 2.252-.946 3.202-1.896m228.825-404.793 77.377 77.377-19.145 19.145c-10.289-10.289-70.654-70.654-77.377-77.377zm-.883 58.622 18.263 18.263-281.752 281.753-18.263-18.263zm-287.164 349.203-42.401-42.402 11.913-39.734c15.164 15.164 55.189 55.189 70.222 70.222zm-53.53 16.05c-3.397 1.015-5.927-1.563-4.92-4.921 11.246-37.51 8.871-29.589 11.156-37.211l30.974 30.975zm107.449-34.993-19.637-19.637 281.753-281.752 19.637 19.637z"/></g></svg>