<svg width="30" height="30" viewBox="0 0 30 30" fill="none" xmlns="http://www.w3.org/2000/svg">
<path d="M14.0908 20H15.909V25.0001H14.0908V20Z" fill="#009688"/>
<path d="M15.0001 17.5454L18.1819 21.3636H11.8184L15.0001 17.5454Z" fill="#009688"/>
<path d="M14.0908 5H15.909V10.0001H14.0908V5Z" fill="#009688"/>
<path d="M15.0001 12.4545L11.8184 8.63623H18.1819L15.0001 12.4545Z" fill="#009688"/>
<path d="M5 14.0908H9.9999V15.909H5V14.0908Z" fill="#009688"/>
<path d="M12.4548 14.9997L8.63672 18.1816V11.8179L12.4548 14.9997Z" fill="#009688"/>
<path d="M20.001 14.0908H25.0009V15.909H20.001V14.0908Z" fill="#009688"/>
<path d="M17.5459 14.9997L21.364 11.8179V18.1816L17.5459 14.9997Z" fill="#009688"/>
<path d="M14.9993 16.3337C15.7357 16.3337 16.3326 15.7367 16.3326 15.0003C16.3326 14.264 15.7357 13.667 14.9993 13.667C14.263 13.667 13.666 14.264 13.666 15.0003C13.666 15.7367 14.263 16.3337 14.9993 16.3337Z" fill="#F44336"/>
</svg>
