<svg viewBox="0 0 30 30" fill="none" xmlns="http://www.w3.org/2000/svg"><path d="M11.334 12.334A.667.667 0 0 1 12 13v8a.667.667 0 0 1-1.333 0v-8a.666.666 0 0 1 .667-.666Zm3.333 0a.666.666 0 0 1 .667.666v8A.667.667 0 0 1 14 21v-8a.667.667 0 0 1 .667-.666Zm4 .666a.666.666 0 1 0-1.333 0v8a.667.667 0 0 0 1.333 0v-8Z" fill="#3C3C3C"/><path fill-rule="evenodd" clip-rule="evenodd" d="M23.333 9A1.333 1.333 0 0 1 22 10.333h-.667v12A2.667 2.667 0 0 1 18.667 25h-8A2.667 2.667 0 0 1 8 22.333v-12h-.667A1.333 1.333 0 0 1 6 9V7.667a1.333 1.333 0 0 1 1.333-1.334H12A1.334 1.334 0 0 1 13.333 5H16a1.333 1.333 0 0 1 1.333 1.333H22a1.333 1.333 0 0 1 1.333 1.334V9ZM9.491 10.333l-.158.079v11.921a1.333 1.333 0 0 0 1.334 1.334h8A1.333 1.333 0 0 0 20 22.333V10.412l-.157-.079H9.49ZM7.333 9V7.667H22V9H7.333Z" fill="#3C3C3C"/></svg>