<?xml version="1.0" standalone="no"?>
<!DOCTYPE svg PUBLIC "-//W3C//DTD SVG 20010904//EN"
 "http://www.w3.org/TR/2001/REC-SVG-20010904/DTD/svg10.dtd">
<svg version="1.0" xmlns="http://www.w3.org/2000/svg"
 width="512.000000pt" height="512.000000pt" viewBox="0 0 512.000000 512.000000"
 preserveAspectRatio="xMidYMid meet">

<g transform="translate(0.000000,512.000000) scale(0.100000,-0.100000)"
fill="#000000" stroke="none">
<path d="M2455 5114 c-444 -32 -840 -211 -1149 -520 -341 -341 -530 -812 -513
-1274 6 -163 20 -238 79 -425 189 -607 708 -1521 1470 -2590 98 -137 187 -261
198 -275 l20 -25 25 30 c44 52 335 462 479 675 614 907 1027 1667 1189 2190
59 190 79 306 78 465 -2 861 -650 1605 -1510 1734 -80 13 -287 21 -366 15z
m225 -734 c473 -58 842 -437 889 -910 43 -442 -207 -859 -622 -1035 -140 -59
-254 -78 -427 -72 -153 6 -230 21 -354 73 -405 171 -661 597 -616 1031 14 132
41 228 99 348 146 300 429 510 756 561 103 16 170 17 275 4z"/>
</g>
</svg>
