<?xml version="1.0" encoding="iso-8859-1"?>
<!-- Generator: Adobe Illustrator 19.0.0, SVG Export Plug-In . SVG Version: 6.00 Build 0)  -->
<svg version="1.1" id="Capa_1" xmlns="http://www.w3.org/2000/svg" xmlns:xlink="http://www.w3.org/1999/xlink" x="0px"
  y="0px" viewBox="0 0 480 480" style="enable-background:new 0 0 480 480;" xml:space="preserve" width="24" height="24">
  <g>
    <path style="fill:#A3EA0A;"
      d="M112,256c0,44.184-17.912,48-40,48s-40-3.816-40-48s17.912-112,40-112S112,211.816,112,256z" />
    <path style="fill:#A3EA0A;"
      d="M224,256c0,44.184-17.912,48-40,48s-40-3.816-40-48s17.912-112,40-112S224,211.816,224,256z" />
    <path style="fill:#A3EA0A;"
      d="M336,256c0,44.184-17.912,48-40,48s-40-3.816-40-48s17.912-112,40-112S336,211.816,336,256z" />
    <path style="fill:#A3EA0A;"
      d="M448,256c0,44.184-17.912,48-40,48s-40-3.816-40-48s17.912-112,40-112S448,211.816,448,256z" />
  </g>
  <path style="fill:#D3D3D3;" d="M0,344h480v128H0V344z" />
  <circle style="fill:#ED4720;" cx="240" cy="40" r="32" />
  <g>
    <path style="fill:#55D5F2;" d="M112,24c-3.968,0-7.648,1.056-10.944,2.752C96.016,15.712,84.936,8,72,8
		s-24.016,7.712-29.056,18.752C39.648,25.056,35.968,24,32,24C18.744,24,8,34.744,8,48s10.744,24,24,24h80c13.256,0,24-10.744,24-24
		S125.256,24,112,24z" />
    <path style="fill:#55D5F2;" d="M448,24c-3.968,0-7.648,1.056-10.944,2.752C432.016,15.712,420.936,8,408,8
		s-24.016,7.712-29.056,18.752C375.648,25.056,371.968,24,368,24c-13.256,0-24,10.744-24,24s10.744,24,24,24h80
		c13.256,0,24-10.744,24-24S461.256,24,448,24z" />
  </g>
  <path d="M416,311.752c20.576-1.376,40-10,40-55.752c0-41.872-16.488-120-48-120s-48,78.128-48,120c0,45.752,19.424,54.376,40,55.752
	V336h-96v-24.248c20.576-1.376,40-10,40-55.752c0-41.872-16.488-120-48-120s-48,78.128-48,120c0,45.752,19.424,54.376,40,55.752V336
	h-96v-24.248c20.576-1.376,40-10,40-55.752c0-41.872-16.488-120-48-120s-48,78.128-48,120c0,45.752,19.424,54.376,40,55.752V336H80
	v-24.248c20.576-1.376,40-10,40-55.752c0-41.872-16.488-120-48-120s-48,78.128-48,120c0,45.752,19.424,54.376,40,55.752V336H0v8v8
	h480v-8v-8h-64V311.752z M408,152c10.264,0,32,49.2,32,104c0,40-14.832,40-32,40s-32,0-32-40C376,201.2,397.736,152,408,152L408,152
	z M296,152c10.264,0,32,49.2,32,104c0,40-14.832,40-32,40s-32,0-32-40C264,201.2,285.736,152,296,152L296,152z M184,152
	c10.264,0,32,49.2,32,104c0,40-14.832,40-32,40s-32,0-32-40C152,201.2,173.736,152,184,152L184,152z M72,152
	c10.264,0,32,49.2,32,104c0,40-14.832,40-32,40s-32,0-32-40C40,201.2,61.736,152,72,152L72,152z" />
  <path d="M0,472v8h480v-8v-8H0V472z" />
  <path d="M24,400h48v16H24V400z" />
  <path d="M120,400h48v16h-48V400z" />
  <path d="M216,400h48v16h-48V400z" />
  <path d="M312,400h48v16h-48V400z" />
  <path d="M408,400h48v16h-48V400z" />
  <path d="M200,40c0,22.056,17.944,40,40,40s40-17.944,40-40S262.056,0,240,0S200,17.944,200,40z M240,64c-13.232,0-24-10.768-24-24
	s10.768-24,24-24s24,10.768,24,24S253.232,64,240,64z" />
  <path d="M32,80h80c17.648,0,32-14.352,32-32s-14.352-32-32-32c-2.496,0-4.984,0.304-7.424,0.912C97.168,6.456,85.048,0,72,0
	S46.832,6.456,39.424,16.912C36.984,16.304,34.496,16,32,16C14.352,16,0,30.352,0,48S14.352,80,32,80z M32,32
	c2.432,0,4.872,0.624,7.272,1.864c1.952,1.008,4.224,1.16,6.288,0.456c2.072-0.72,3.752-2.248,4.664-4.24
	C54.128,21.52,62.672,16,72,16s17.872,5.52,21.776,14.08c0.912,1.992,2.592,3.52,4.664,4.24c2.072,0.696,4.336,0.544,6.288-0.456
	C115.84,28.136,128,36.752,128,48c0,8.824-7.176,16-16,16H32c-8.824,0-16-7.176-16-16S23.176,32,32,32z" />
  <path d="M448,16c-2.496,0-4.984,0.304-7.424,0.912C433.168,6.456,421.048,0,408,0s-25.168,6.456-32.576,16.912
	C372.984,16.304,370.496,16,368,16c-17.648,0-32,14.352-32,32s14.352,32,32,32h80c17.648,0,32-14.352,32-32S465.648,16,448,16z
	 M448,64h-80c-8.824,0-16-7.176-16-16s7.176-16,16-16c2.432,0,4.872,0.624,7.272,1.864c1.96,1.008,4.224,1.16,6.288,0.456
	c2.072-0.72,3.752-2.248,4.664-4.24C390.128,21.52,398.672,16,408,16s17.872,5.52,21.776,14.08c0.912,1.992,2.592,3.52,4.664,4.24
	c2.072,0.696,4.336,0.544,6.288-0.456C451.84,28.136,464,36.752,464,48C464,56.824,456.824,64,448,64z" />
  <g>
  </g>
  <g>
  </g>
  <g>
  </g>
  <g>
  </g>
  <g>
  </g>
  <g>
  </g>
  <g>
  </g>
  <g>
  </g>
  <g>
  </g>
  <g>
  </g>
  <g>
  </g>
  <g>
  </g>
  <g>
  </g>
  <g>
  </g>
  <g>
  </g>
</svg>