<?xml version="1.0" encoding="UTF-8"?>
<!DOCTYPE svg PUBLIC "-//W3C//DTD SVG 1.1//EN" "http://www.w3.org/Graphics/SVG/1.1/DTD/svg11.dtd">
<!-- Creator: CorelDRAW X8 -->
<svg xmlns="http://www.w3.org/2000/svg" xml:space="preserve" width="165mm" height="20mm" version="1.1" style="shape-rendering:geometricPrecision; text-rendering:geometricPrecision; image-rendering:optimizeQuality; fill-rule:evenodd; clip-rule:evenodd"
viewBox="0 0 16500 2000"
 xmlns:xlink="http://www.w3.org/1999/xlink">
 <defs>
  <style type="text/css">
   <![CDATA[
    .fil0 {fill:#373435;fill-rule:nonzero}
   ]]>
  </style>
 </defs>
 <g id="Camada_x0020_1">
  <metadata id="CorelCorpID_0Corel-Layer"/>
  <g id="_2331861149760">
   <polygon class="fil0" points="7984,1853 8053,1853 8053,265 7984,265 "/>
   <path class="fil0" d="M1241 1740c111,-84 167,-202 167,-350l0 -29c0,-60 -7,-115 -18,-166 -11,-51 -33,-96 -64,-138 -34,-40 -78,-75 -134,-104 -55,-29 -128,-49 -215,-64l-146 -25c-60,-11 -100,-26 -124,-49 -25,-19 -38,-51 -38,-93 0,-60 22,-99 69,-122 44,-20 113,-31 204,-31 69,0 135,5 199,16 65,11 120,22 171,35l60 -312c-62,-18 -129,-34 -199,-47 -74,-11 -145,-18 -216,-18 -117,0 -217,11 -301,34 -87,24 -155,55 -211,97 -55,42 -97,91 -124,149 -27,60 -40,124 -40,195l0 24c0,144 33,251 98,322 64,71 164,117 301,137l155 25c63,11 107,26 131,49 25,24 36,57 36,104 0,60 -22,102 -67,122 -46,22 -108,33 -188,33 -76,0 -151,-7 -226,-20 -78,-13 -145,-27 -202,-40l-69 317c31,11 67,20 109,29 40,9 82,16 126,22 44,7 91,14 138,18 46,4 90,7 133,7 210,0 372,-43 485,-127zm819 -206c-34,-9 -60,-27 -83,-55 -22,-29 -39,-69 -51,-120 -13,-51 -19,-120 -19,-204l0 -200c0,-82 6,-151 19,-202 12,-51 29,-91 51,-119 23,-29 49,-47 83,-58 31,-11 66,-16 106,-16 40,0 75,5 109,14 31,11 57,29 79,57 20,29 38,69 49,120 11,51 16,120 16,204l0 200c0,84 -7,151 -18,202 -13,51 -31,90 -53,119 -25,29 -51,49 -82,58 -31,11 -65,16 -100,16 -40,0 -75,-5 -106,-16zm-220 -1253c-86,36 -157,84 -208,149 -54,64 -91,142 -111,232 -23,91 -34,193 -34,302l0 182c0,100 9,195 29,284 20,91 53,168 104,235 51,66 120,120 207,157 86,40 199,60 337,60 133,0 244,-18 330,-55 87,-36 155,-87 206,-151 51,-64 87,-140 107,-231 20,-91 31,-190 31,-299l0 -182c0,-102 -9,-197 -27,-288 -20,-89 -53,-167 -102,-233 -51,-67 -119,-120 -206,-158 -89,-37 -202,-57 -339,-57 -131,0 -238,18 -324,53zm1754 1025c184,0 322,-40 413,-118 91,-78 135,-204 135,-384l0 -48c0,-67 -9,-129 -25,-189 -17,-60 -46,-111 -84,-155 -40,-44 -91,-80 -153,-107 -64,-26 -142,-39 -235,-39l-674 0 0 1578 401 0 0 -538 222 0zm-222 -715l193 0c120,0 180,60 180,178l0 38c0,55 -16,99 -47,128 -31,29 -75,45 -133,45l-193 0 0 -389zm1630 774l0 -332 -769 0 0 332 769 0zm1014 493c60,-7 122,-16 186,-31l62 -313c-64,11 -122,18 -175,20 -53,4 -102,7 -149,7 -68,0 -126,-7 -168,-18 -44,-11 -80,-31 -104,-60 -27,-29 -45,-71 -54,-124 -11,-53 -15,-122 -15,-206l0 -142c0,-82 7,-151 20,-207 11,-55 31,-97 58,-130 26,-31 62,-54 104,-67 42,-11 95,-18 155,-18 55,0 104,5 146,11 42,7 82,18 120,29l67 -306c-42,-15 -98,-29 -167,-42 -68,-11 -142,-18 -224,-18 -135,0 -248,20 -339,60 -91,40 -162,93 -215,160 -56,69 -93,146 -115,237 -25,91 -36,189 -36,291l0 159c0,122 13,227 38,317 24,91 62,165 115,224 53,60 122,102 206,131 85,29 187,45 309,45 55,0 113,-3 175,-9zm488 -1592l0 1578 1060 0 40 -321 -692 0 0 -313 585 0 40 -321 -625 0 0 -302 652 0 40 -321 -1100 0z"/>
   <path class="fil0" d="M8868 687l0 -9c0,-27 -4,-49 -11,-67 -7,-19 -17,-34 -30,-46 -13,-13 -29,-22 -47,-29 -19,-6 -38,-11 -61,-15l-63 -11c-30,-5 -51,-13 -63,-25 -13,-10 -19,-28 -19,-53 0,-31 10,-53 29,-65 20,-13 52,-19 95,-19 28,0 53,1 76,6 23,4 44,9 63,14l16 -79c-25,-8 -49,-15 -75,-19 -25,-4 -52,-6 -81,-6 -74,0 -129,13 -166,40 -37,27 -55,69 -55,127l0 8c0,44 13,80 37,107 24,27 59,44 106,51l65 9c17,2 31,5 42,10 11,5 19,11 25,18 5,8 9,15 12,24 2,9 3,19 3,29 0,32 -10,56 -29,70 -18,15 -51,22 -96,22 -28,0 -55,-2 -80,-6 -26,-5 -50,-10 -73,-16l-17 80c22,8 48,14 79,19 30,5 62,7 95,7 148,0 223,-59 223,-176zm432 164c28,-11 51,-26 68,-47 18,-21 29,-47 36,-78 7,-30 10,-66 10,-107l0 -346 -102 0 0 340c0,32 -2,59 -5,81 -4,22 -11,39 -20,52 -9,13 -21,22 -36,28 -16,6 -36,8 -59,8 -24,0 -43,-2 -58,-8 -16,-6 -29,-15 -38,-28 -10,-13 -16,-30 -21,-52 -4,-22 -6,-49 -6,-82l0 -339 -102 0 0 345c0,42 3,78 9,109 7,31 18,57 36,77 16,22 39,37 68,48 28,11 64,15 108,15 45,0 82,-5 112,-16zm450 -213c62,0 109,-14 141,-45 32,-30 49,-72 49,-129l0 -20c0,-24 -4,-47 -10,-68 -7,-20 -17,-39 -30,-54 -14,-16 -32,-27 -54,-36 -23,-9 -49,-13 -80,-13l-229 0 0 582 102 0 0 -217 111 0zm-111 -285l104 0c33,0 57,8 72,23 15,17 22,41 22,72l0 18c0,32 -8,55 -23,70 -17,15 -41,22 -74,22l-101 0 0 -205zm402 -80l0 582 366 0 11 -82 -275 0 0 -175 238 0 11 -82 -249 0 0 -162 264 0 11 -81 -377 0zm887 169c0,-24 -3,-46 -10,-66 -6,-21 -16,-38 -30,-54 -14,-15 -32,-27 -54,-36 -22,-9 -49,-13 -80,-13l-234 0 0 582 101 0 0 -224 98 0 119 224 111 0 -131 -235c36,-11 64,-31 82,-58 19,-27 28,-61 28,-102l0 -18zm-307 -86l112 0c62,0 93,30 93,91l0 11c0,31 -8,54 -25,68 -16,14 -40,22 -72,22l-108 0 0 -192zm518 -83l-103 0 0 582 103 0 0 -582zm129 0l0 582 94 0 0 -416 252 416 90 0 0 -582 -94 0 0 415 -252 -415 -90 0zm532 0l-11 84 181 0 0 498 102 0 0 -498 170 0 11 -84 -453 0zm538 0l0 582 366 0 12 -82 -275 0 0 -175 237 0 11 -82 -248 0 0 -162 263 0 12 -81 -378 0zm479 0l0 582 94 0 0 -416 252 416 90 0 0 -582 -94 0 0 415 -252 -415 -90 0zm566 582l196 0c48,0 88,-6 121,-19 32,-13 58,-31 77,-54 19,-23 33,-51 41,-83 8,-32 12,-67 12,-106l0 -59c0,-38 -4,-73 -11,-105 -8,-32 -22,-59 -40,-83 -19,-23 -45,-41 -77,-54 -32,-13 -73,-19 -122,-19l-197 0 0 582zm102 -497l87 0c26,0 49,2 67,8 19,6 36,15 49,29 12,14 22,33 28,57 6,23 9,52 9,87l0 49c0,35 -3,63 -9,87 -7,24 -17,42 -29,56 -13,14 -30,24 -48,30 -20,6 -43,9 -68,9l-86 0 0 -412zm461 -85l0 582 366 0 12 -82 -275 0 0 -175 237 0 11 -82 -248 0 0 -162 263 0 12 -81 -378 0zm252 -49l91 0 -106 -106 -92 0 -107 106 92 0 60 -56 62 56zm227 49l0 582 94 0 0 -416 252 416 90 0 0 -582 -94 0 0 415 -252 -415 -90 0zm855 586c21,-2 40,-5 58,-10l17 -81c-18,3 -37,5 -58,7 -20,2 -38,3 -54,3 -30,0 -56,-2 -76,-7 -21,-5 -38,-14 -50,-28 -13,-14 -22,-33 -27,-56 -5,-24 -8,-55 -8,-93l0 -55c0,-39 4,-70 9,-95 6,-24 15,-44 28,-58 12,-14 29,-23 49,-28 20,-6 44,-9 72,-9 19,0 38,2 55,5 17,3 32,6 44,10l17 -79c-17,-6 -36,-11 -59,-15 -22,-4 -45,-6 -68,-6 -49,0 -89,7 -121,20 -33,13 -59,31 -78,55 -19,24 -33,52 -40,86 -8,33 -12,71 -12,112l0 61c0,44 4,82 11,116 7,33 20,60 38,82 19,22 44,40 76,50 32,12 71,17 119,17 18,0 38,-1 58,-4zm278 -586l-103 0 0 582 103 0 0 -582zm490 582l106 0 -203 -582 -109 0 -199 582 102 0 48 -154 207 0 48 154zm-151 -483l76 248 -154 0 78 -248z"/>
   <path class="fil0" d="M8500 1837l197 0c48,0 88,-6 121,-19 32,-13 58,-31 77,-54 18,-23 32,-51 41,-83 8,-32 12,-67 12,-106l0 -59c0,-38 -4,-73 -12,-105 -7,-32 -21,-59 -40,-83 -19,-23 -45,-41 -77,-54 -32,-13 -73,-19 -122,-19l-197 0 0 582zm102 -497l87 0c26,0 49,2 68,8 19,6 35,15 48,29 13,14 23,33 29,57 6,23 9,52 9,87l0 49c0,35 -3,63 -10,87 -6,24 -16,42 -28,56 -14,14 -30,24 -49,30 -19,6 -42,9 -68,9l-86 0 0 -412zm462 -85l0 582 366 0 11 -82 -275 0 0 -175 238 0 11 -82 -249 0 0 -162 264 0 11 -81 -377 0zm849 502c-17,-5 -31,-14 -41,-28 -11,-14 -19,-32 -25,-55 -6,-24 -8,-54 -8,-92l0 -72c0,-38 3,-69 9,-93 6,-23 14,-41 25,-55 10,-13 24,-22 40,-27 17,-5 36,-8 56,-8 22,0 41,3 57,8 17,5 31,14 41,27 11,14 18,32 24,55 5,24 7,55 7,93l0 72c0,37 -2,67 -8,91 -5,23 -14,42 -25,56 -11,14 -25,23 -40,28 -17,5 -35,7 -56,7 -22,0 -41,-2 -56,-7zm-58 -496c-31,13 -54,31 -72,55 -18,24 -30,52 -37,85 -8,34 -12,70 -12,110l0 70c0,40 4,76 11,109 6,33 19,60 36,84 17,24 42,43 72,56 30,13 69,19 115,19 47,0 85,-6 116,-19 30,-13 55,-31 72,-55 17,-24 29,-52 37,-85 7,-33 10,-69 10,-109l0 -70c0,-40 -3,-76 -10,-109 -7,-33 -19,-62 -36,-85 -18,-24 -41,-42 -72,-55 -30,-13 -69,-20 -117,-20 -46,0 -83,7 -113,19zm680 576c65,0 114,-13 147,-40 32,-27 48,-65 48,-116l0 -15c0,-31 -7,-59 -22,-83 -15,-25 -36,-42 -64,-51 22,-10 40,-25 53,-45 13,-21 19,-44 19,-72l0 -15c0,-20 -3,-40 -10,-58 -6,-17 -16,-33 -30,-46 -14,-13 -32,-23 -54,-31 -22,-7 -49,-10 -79,-10l-224 0 0 582 216 0zm-116 -262l112 0c64,0 96,29 96,87l0 16c0,54 -31,81 -92,81l-116 0 0 -184zm0 -243l107 0c59,0 89,26 89,77l0 13c0,24 -8,42 -21,54 -15,13 -36,19 -62,19l-113 0 0 -163zm821 92c0,-24 -3,-46 -10,-66 -6,-21 -16,-38 -30,-54 -14,-15 -32,-27 -54,-36 -22,-9 -49,-13 -80,-13l-234 0 0 582 100 0 0 -224 99 0 119 224 111 0 -131 -235c36,-11 63,-31 82,-58 19,-27 28,-61 28,-102l0 -18zm-308 -86l113 0c62,0 93,30 93,91l0 11c0,31 -8,54 -25,68 -16,14 -40,22 -72,22l-109 0 0 -192zm785 499l107 0 -203 -582 -110 0 -199 582 102 0 49 -154 206 0 48 154zm-151 -483l77 248 -155 0 78 -248zm722 315l0 -9c0,-27 -3,-49 -10,-67 -8,-19 -18,-34 -31,-46 -13,-13 -28,-22 -46,-29 -19,-6 -39,-11 -61,-15l-64 -11c-29,-5 -50,-13 -63,-25 -12,-10 -18,-28 -18,-53 0,-31 9,-53 29,-65 20,-13 52,-19 95,-19 28,0 53,1 76,6 23,4 43,9 62,14l17 -79c-25,-8 -50,-15 -75,-19 -25,-4 -52,-6 -81,-6 -74,0 -129,13 -166,40 -37,27 -55,69 -55,127l0 8c0,44 12,80 37,107 24,27 59,44 106,51l65 9c17,2 31,5 42,10 10,5 19,11 24,18 6,8 10,15 13,24 2,9 3,19 3,29 0,32 -10,56 -29,70 -19,15 -51,22 -96,22 -28,0 -55,-2 -81,-6 -25,-5 -50,-10 -72,-16l-18 80c22,8 49,14 80,19 30,5 62,7 95,7 148,0 222,-59 222,-176zm523 -49c62,0 110,-14 142,-45 32,-30 48,-72 48,-129l0 -20c0,-24 -3,-47 -10,-68 -6,-20 -16,-39 -30,-54 -14,-16 -32,-27 -54,-36 -22,-9 -48,-13 -79,-13l-230 0 0 582 103 0 0 -217 110 0zm-110 -285l104 0c32,0 56,8 72,23 14,17 22,41 22,72l0 18c0,32 -8,55 -24,70 -16,15 -41,22 -74,22l-100 0 0 -205zm720 498c29,-11 51,-26 69,-47 17,-21 28,-47 36,-78 6,-30 9,-66 9,-107l0 -346 -102 0 0 340c0,32 -1,59 -5,81 -4,22 -10,39 -19,52 -9,13 -22,22 -37,28 -16,6 -35,8 -59,8 -24,0 -43,-2 -58,-8 -16,-6 -29,-15 -38,-28 -10,-13 -16,-30 -20,-52 -4,-22 -7,-49 -7,-82l0 -339 -102 0 0 345c0,42 3,78 10,109 6,31 18,57 35,77 16,22 39,37 68,48 28,11 64,15 109,15 45,0 81,-5 111,-16zm-183 -627l97 0 133 -106 -114 0 -116 106zm636 631c65,0 114,-13 147,-40 32,-27 48,-65 48,-116l0 -15c0,-31 -7,-59 -22,-83 -15,-25 -36,-42 -64,-51 22,-10 40,-25 53,-45 13,-21 19,-44 19,-72l0 -15c0,-20 -3,-40 -10,-58 -6,-17 -16,-33 -30,-46 -14,-13 -32,-23 -54,-31 -22,-7 -49,-10 -79,-10l-224 0 0 582 216 0zm-116 -262l112 0c64,0 96,29 96,87l0 16c0,54 -31,81 -93,81l-115 0 0 -184zm0 -243l106 0c60,0 90,26 90,77l0 13c0,24 -8,42 -22,54 -14,13 -35,19 -61,19l-113 0 0 -163zm413 -77l0 582 350 0 11 -85 -259 0 0 -497 -102 0zm541 0l-103 0 0 582 103 0 0 -582zm419 586c20,-2 40,-5 58,-10l16 -81c-18,3 -37,5 -57,7 -21,2 -39,3 -54,3 -31,0 -57,-2 -77,-7 -21,-5 -38,-14 -50,-28 -12,-14 -21,-33 -26,-56 -6,-24 -9,-55 -9,-93l0 -55c0,-39 4,-70 9,-95 6,-24 15,-44 28,-58 13,-14 29,-23 49,-28 20,-6 44,-9 72,-9 19,0 38,2 55,5 17,3 32,6 44,10l18 -79c-18,-6 -37,-11 -59,-15 -22,-4 -45,-6 -69,-6 -48,0 -89,7 -121,20 -33,13 -59,31 -78,55 -19,24 -33,52 -40,86 -8,33 -12,71 -12,112l0 61c0,44 4,82 11,116 8,33 20,60 39,82 18,22 43,40 75,50 32,12 71,17 119,17 18,0 38,-1 59,-4zm548 -4l106 0 -203 -582 -109 0 -199 582 102 0 48 -154 207 0 48 154zm-152 -483l77 248 -154 0 77 -248zm723 315l0 -9c0,-27 -3,-49 -11,-67 -7,-19 -17,-34 -30,-46 -13,-13 -29,-22 -47,-29 -18,-6 -38,-11 -60,-15l-64 -11c-29,-5 -51,-13 -63,-25 -12,-10 -19,-28 -19,-53 0,-31 10,-53 30,-65 19,-13 51,-19 95,-19 27,0 53,1 76,6 23,4 43,9 62,14l16 -79c-24,-8 -49,-15 -74,-19 -26,-4 -53,-6 -81,-6 -75,0 -130,13 -166,40 -37,27 -55,69 -55,127l0 8c0,44 12,80 37,107 23,27 59,44 105,51l66 9c17,2 31,5 41,10 11,5 19,11 25,18 6,8 10,15 12,24 3,9 4,19 4,29 0,32 -10,56 -29,70 -19,15 -52,22 -97,22 -28,0 -55,-2 -80,-6 -25,-5 -50,-10 -73,-16l-17 80c22,8 48,14 79,19 31,5 63,7 95,7 149,0 223,-59 223,-176z"/>
  </g>
 </g>
</svg>
