<svg width="18" height="24" viewBox="0 0 18 24" fill="none" xmlns="http://www.w3.org/2000/svg">
<path d="M10.2265 19.8816C10.0882 19.6041 9.84724 19.5759 9.74975 19.5759C9.65225 19.5759 9.41132 19.6036 9.28007 19.8661L8.92055 20.5852C8.62196 21.1842 7.7473 21.1181 7.53871 20.4872L6.74982 18.1214L6.25249 19.6158C5.97641 20.4436 5.20346 21 4.33067 21H3.7499C3.33554 21 2.99992 20.6644 2.99992 20.25C2.99992 19.8356 3.33554 19.5 3.7499 19.5H4.33067C4.55707 19.5 4.75769 19.3556 4.82941 19.1409L5.68204 16.5797C5.83672 16.1198 6.26515 15.8105 6.74982 15.8105C7.2345 15.8105 7.66293 16.1194 7.81714 16.5797L8.46775 18.5316C9.39351 17.7727 11.0017 18.0769 11.5614 19.1953C11.65 19.3725 11.8188 19.4742 12.0002 19.4888H18V15.6394V9.68203V7.5H11.6247C11.006 7.5 10.4997 6.99375 10.4997 6.375V0H1.12497C0.501549 0 0 0.501562 0 1.125V22.875C0 23.4984 0.501549 24 1.12497 24H16.8746C17.498 24 17.9995 23.4984 17.9995 22.875V21L11.9997 20.9948C11.2441 20.9803 10.5663 20.5598 10.2265 19.8816ZM17.9995 5.71406C17.9995 5.41875 17.8823 5.13281 17.6714 4.92188L13.0825 0.328125C12.8715 0.117188 12.5856 0 12.2856 0H11.9997V6H17.9995V5.71406Z" fill="#90CAF9"/>
</svg>
