<svg width="19" height="24" viewBox="0 0 19 24" fill="none" xmlns="http://www.w3.org/2000/svg">
<path d="M9.50067 19.7994L6.53192 16.1995V12.5997H12.4694V16.1995L9.50067 19.7994Z" fill="#FF9800"/>
<path d="M14.8444 10.201C15.5003 10.201 16.0319 9.66375 16.0319 9.00104C16.0319 8.33832 15.5003 7.80109 14.8444 7.80109C14.1886 7.80109 13.6569 8.33832 13.6569 9.00104C13.6569 9.66375 14.1886 10.201 14.8444 10.201Z" fill="#FFA726"/>
<path d="M4.1568 10.201C4.81264 10.201 5.3443 9.66375 5.3443 9.00104C5.3443 8.33832 4.81264 7.80109 4.1568 7.80109C3.50096 7.80109 2.9693 8.33832 2.9693 9.00104C2.9693 9.66375 3.50096 10.201 4.1568 10.201Z" fill="#FFA726"/>
<path d="M14.8441 5.40107C14.8441 0.841258 4.15659 2.40119 4.15659 5.40107V9.60089C4.15659 12.6008 6.53159 15.0007 9.50034 15.0007C12.4691 15.0007 14.8441 12.6008 14.8441 9.60089V5.40107Z" fill="#FFB74D"/>
<path d="M9.50012 0C5.87825 0 3.56262 2.93988 3.56262 6.59972V7.97966L4.75012 8.99962V5.99975L11.8751 3.59985L14.2501 5.99975V8.99962L15.4376 7.97966V6.59972C15.4376 4.19982 14.8439 1.79992 11.8751 1.19995L11.2814 0H9.50012Z" fill="#FF5722"/>
<path d="M11.8753 9.60028C12.2033 9.60028 12.4691 9.33166 12.4691 9.0003C12.4691 8.66895 12.2033 8.40033 11.8753 8.40033C11.5474 8.40033 11.2816 8.66895 11.2816 9.0003C11.2816 9.33166 11.5474 9.60028 11.8753 9.60028Z" fill="#784719"/>
<path d="M7.12567 9.60028C7.45359 9.60028 7.71942 9.33166 7.71942 9.0003C7.71942 8.66895 7.45359 8.40033 7.12567 8.40033C6.79775 8.40033 6.53192 8.66895 6.53192 9.0003C6.53192 9.33166 6.79775 9.60028 7.12567 9.60028Z" fill="#784719"/>
<path d="M12.4688 16.1992L9.5 16.7991L6.53125 16.1992C6.53125 16.1992 0 17.3991 0 23.9988H19C19 17.3991 12.4688 16.1992 12.4688 16.1992Z" fill="#CFD8DC"/>
<path d="M8.90674 18.6002L8.31299 24H10.688L10.0942 18.6002L10.688 18.0002L9.50049 16.8003L8.31299 18.0002L8.90674 18.6002Z" fill="#3F51B5"/>
</svg>
