<svg id="filled_outline" height="24" viewBox="0 0 512 512" width="24" xmlns="http://www.w3.org/2000/svg"
  data-name="filled outline">
  <path d="m328 152h48v24h-48z" fill="#ffa100" />
  <path d="m336 176v16l-8 8v64a24 24 0 0 0 24 24 24 24 0 0 0 24-24v-64l-8-8v-16z" fill="#f78e00" />
  <path d="m248 216v-32l-112-48-8 24z" fill="#ffe28f" />
  <path d="m224 336v-72l-96-80v-24l128 56 80 120z" fill="#ffb401" />
  <path d="m296 392h-112l-16-24v-80h96l32 48z" fill="#ffcc4d" />
  <path
    d="m464 224 24 16v32l-16 16h-8v-32l-16-8-16 8v32h-8l-16-16v-32l24-16v-136l-24-16v-32l16-16h8v32l16 8 16-8v-32h8l16 16v32l-24 16z"
    fill="#8098ab" />
  <path d="m296 336h112v88h-160v-56z" fill="#ffc431" />
  <rect fill="#8098ab" height="64" rx="32" transform="matrix(-1 0 0 -1 512 912)" width="256" x="128" y="424" />
  <path d="m144 128-16 32v24l-56 104h-32l6.64-24.91 25.36-95.09 48-40z" fill="#ffc431" />
  <path d="m72 288 24 32v24l24 16v16h-56a40 40 0 0 1 -40-40v-24l16-24z" fill="#8098ab" />
  <path d="m72 168-25.36 95.09-22.64-15.09 16-80z" fill="#ffe28f" />
  <path d="m248 384h160v40h-160z" fill="#ffb401" />
  <path d="m168 344h24a24 24 0 0 0 24-24v-32h-48z" fill="#9ce6ed" />
  <path
    d="m492.43749 78.65625a7.99941 7.99941 0 0 0 3.56251-6.65625v-32a7.99877 7.99877 0 0 0 -2.34326-5.65674l-16-16a7.99877 7.99877 0 0 0 -5.65674-2.34326h-8a7.99977 7.99977 0 0 0 -8 8v27.05566l-8 4-8-4v-27.05566a7.99977 7.99977 0 0 0 -8-8h-8a7.99877 7.99877 0 0 0 -5.65674 2.34326l-16 16a7.99877 7.99877 0 0 0 -2.34326 5.65674v32a7.99944 7.99944 0 0 0 3.56249 6.65625l20.43751 13.625v127.4375l-20.43751 13.625a7.99944 7.99944 0 0 0 -3.56249 6.65625v32a7.99877 7.99877 0 0 0 2.34326 5.65674l16 16a7.99877 7.99877 0 0 0 5.65674 2.34326h8a7.99977 7.99977 0 0 0 8-8v-27.05566l8-4 8 4v27.05566a7.99977 7.99977 0 0 0 8 8h8a7.99877 7.99877 0 0 0 5.65674-2.34326l16-16a7.99877 7.99877 0 0 0 2.34326-5.65674v-32a7.99941 7.99941 0 0 0 -3.56251-6.65625l-20.43749-13.625v-127.4375zm-32.875 152 20.43751 13.625v24.40527l-8 8v-20.68652a7.99924 7.99924 0 0 0 -4.42236-7.15527l-16-8a7.99846 7.99846 0 0 0 -7.15528 0l-16 8a7.99924 7.99924 0 0 0 -4.42236 7.15527v20.68652l-8-8v-24.40527l20.43749-13.625a7.99941 7.99941 0 0 0 3.56251-6.65625v-136a7.99941 7.99941 0 0 0 -3.56251-6.65625l-20.43749-13.625v-24.40527l8-8v20.68652a7.99924 7.99924 0 0 0 4.42236 7.15527l16 8a8.00053 8.00053 0 0 0 7.15528 0l16-8a7.99924 7.99924 0 0 0 4.42236-7.15527v-20.68652l8 8v24.40527l-20.43751 13.625a7.99944 7.99944 0 0 0 -3.56249 6.65625v136a7.99944 7.99944 0 0 0 3.56249 6.65625z" />
  <path
    d="m352 296a32.036 32.036 0 0 0 32-32v-64a7.99877 7.99877 0 0 0 -2.34326-5.65674l-5.65674-5.65726v-4.686a7.99977 7.99977 0 0 0 8-8v-24a7.99977 7.99977 0 0 0 -8-8h-16v-120a8 8 0 0 0 -16 0v120h-16a7.99977 7.99977 0 0 0 -8 8v24a7.99977 7.99977 0 0 0 8 8v4.686l-5.65674 5.65722a7.99877 7.99877 0 0 0 -2.34326 5.65678v64a32.036 32.036 0 0 0 32 32zm-16-136h32v8h-32zm24 24v8a7.99877 7.99877 0 0 0 2.34326 5.65674l5.65674 5.65726v60.686a16 16 0 0 1 -32 0v-60.686l5.65674-5.65722a7.99877 7.99877 0 0 0 2.34326-5.65678v-8z" />
  <path
    d="m408 328h-67.71875l-77.625-116.4375a7.9968 7.9968 0 0 0 -3.44971-2.8916l-3.20654-1.4029v-23.268a7.99956 7.99956 0 0 0 -4.84863-7.353l-100.90772-43.24618.91162-1.82318a7.99974 7.99974 0 0 0 -7.15527-11.57764h-24a8.00012 8.00012 0 0 0 -5.12158 1.85449l-45.7746 38.14551h-29.10382a8.00041 8.00041 0 0 0 -7.84473 6.43115l-16 80a7.99975 7.99975 0 0 0 3.40723 8.2251l17.87219 11.91475-4.82452 18.0918-15.26642 22.8997a7.996 7.996 0 0 0 -1.34375 4.4375v24a48.05436 48.05436 0 0 0 48 48h56a7.99977 7.99977 0 0 0 8-8v-16a7.99943 7.99943 0 0 0 -3.5625-6.65625l-20.4375-13.625v-19.71875a7.99948 7.99948 0 0 0 -1.6001-4.7998l-20.93182-27.9092 48.93323-90.876 85.59869 71.33207v12.25293h-48a7.99977 7.99977 0 0 0 -8 8v80a7.996 7.996 0 0 0 1.34375 4.4375l16 24a7.99943 7.99943 0 0 0 6.65625 3.5625h56v16h-80a40 40 0 0 0 0 80h192a39.97818 39.97818 0 0 0 31.97815-64h24.02185a7.99977 7.99977 0 0 0 8-8v-88a7.99977 7.99977 0 0 0 -8-8zm-8 48h-144v-3.71875l42.42236-28.28125h101.57764zm-160-186.72461v10.99261l-101.07892-44.222 4.15491-8.30981zm-117.10352-53.27539h8.15918l-10.21093 20.42236.01031.00519a7.98173 7.98173 0 0 0 -.85504 3.57245v21.98254l-52.77832 98.01746h-16.80859l28.66162-107.48193zm-90.001 108.31543 13.66311-68.31543h15.02841l-19.79849 74.2442zm58.667 106.34082 20.43752 13.625v3.71875h-48a32.036 32.036 0 0 1 -32-32v-21.57764l12.28131-18.42236h23.71893l19.99976 26.6665v21.3335a7.99943 7.99943 0 0 0 3.5625 6.65625zm137.5591-92.80225-93.12158-77.60107v-8.021l114.64453 50.15723 70.40753 105.61084h-20.77081l-29.625-44.4375a7.99943 7.99943 0 0 0 -6.65625-3.5625h-32v-16a8.00149 8.00149 0 0 0 -2.87842-6.146zm-21.12158 38.146v24a16.01833 16.01833 0 0 1 -16 16h-16v-40zm-19.71875 88-12.28125-18.42236v-13.57764h16a32.036 32.036 0 0 0 32-32v-24h35.71875l25.1875 37.78125-41.34376 27.5625a7.99944 7.99944 0 0 0 -3.56249 6.65625v16zm187.71875 72a24.0275 24.0275 0 0 1 -24 24h-192a24 24 0 0 1 0-48h192a24.0275 24.0275 0 0 1 24 24zm-120-40v-24h144v24z" />
  <path d="m184 448h16v16h-16z" />
  <path d="m152 448h16v16h-16z" />
  <path d="m216 448h16v16h-16z" />
  <path d="m248 448h16v16h-16z" />
  <path d="m280 448h16v16h-16z" />
  <path d="m312 448h16v16h-16z" />
  <path d="m344 448h16v16h-16z" />
  <path d="m368 352h16v16h-16z" /></svg>