<svg height="24px" viewBox="0 -40 512 512" width="24px" xmlns="http://www.w3.org/2000/svg">
  <path
    d="m391.746094 204.882812c0 16.261719-2.175782 32.351563-6.453125 47.863282-17.183594 62.382812-66.859375 110.875-129.632813 126.535156-4.820312 1.203125-9.699218 2.214844-14.621094 3.007812-9.558593 1.5625-19.277343 2.34375-29.035156 2.34375-99.113281 0-179.75-80.636718-179.75-179.75 0-99.113281 80.636719-179.742187 179.75-179.742187 2.804688 0 5.671875.070313 8.738282.210937 46.199218 2.222657 89.234374 21.882813 121.226562 55.367188 32.101562 33.585938 49.777344 77.683594 49.777344 124.164062zm0 0"
    fill="#ffc364" />
  <path
    d="m341.96875 80.71875c-31.992188-33.484375-75.027344-53.144531-121.226562-55.367188-3.066407-.140624-5.933594-.210937-8.738282-.210937-4.90625 0-9.769531.207031-14.578125.59375v358.304687c4.808594.386719 9.671875.59375 14.578125.59375 9.757813 0 19.476563-.78125 29.035156-2.34375 4.921876-.792968 9.800782-1.804687 14.621094-3.007812 62.773438-15.660156 112.449219-64.152344 129.632813-126.535156 4.277343-15.511719 6.453125-31.601563 6.453125-47.863282 0-46.480468-17.675782-90.578124-49.777344-124.164062zm0 0"
    fill="#ff9b32" />
  <path
    d="m197.425781 204.886719 183.097657 62.628906c1.792968-4.820313 3.386718-9.75 4.769531-14.761719v-.007812c1.382812-5.019532 2.542969-10.089844 3.476562-15.21875 1.984375-10.722656 2.976563-21.644532 2.976563-32.644532 0-46.480468-17.675782-90.578124-49.777344-124.164062-31.992188-33.484375-75.027344-53.144531-121.175781-55.367188zm0 0"
    fill="#ff3364" />
  <path
    d="m197.425781 204.886719c.011719.0625 43.613281 177.402343 43.613281 177.402343 4.921876-.792968 9.800782-1.804687 14.621094-3.007812 57.722656-14.398438 104.371094-56.570312 124.863282-111.765625 1.792968-4.820313 4.769531-14.769531 4.769531-14.769531zm0 0"
    fill="#47ba9e" />
  <path
    d="m380.757812 431.789062c-8.300781 0-15.027343-6.730468-15.027343-15.03125v-44.617187l-84.070313-71.242187c-6.332031-5.367188-7.113281-14.851563-1.746094-21.183594 5.367188-6.332032 14.847657-7.117188 21.183594-1.75l89.378906 75.746094c3.367188 2.855468 5.3125 7.050781 5.3125 11.464843v51.582031c0 8.300782-6.730468 15.03125-15.03125 15.03125zm0 0"
    fill="#8bc8e8" />
  <path
    d="m297.195312 133.398438c-3.753906 0-7.507812-1.394532-10.425781-4.203126-5.976562-5.757812-6.15625-15.273437-.398437-21.25l81.261718-84.394531c2.832032-2.945312 6.742188-4.605469 10.828126-4.605469h45.414062c8.300781 0 15.027344 6.730469 15.027344 15.027344 0 8.300782-6.726563 15.03125-15.027344 15.03125h-39.023438l-76.828124 79.789063c-2.949219 3.0625-6.886719 4.605469-10.828126 4.605469zm0 0"
    fill="#8bc8e8" />
  <path
    d="m104.402344 157.386719c-3.433594 0-6.886719-1.171875-9.710938-3.566407l-89.378906-75.746093c-3.371094-2.855469-5.3125-7.046875-5.3125-11.464844v-51.578125c0-8.300781 6.730469-15.03125 15.03125-15.03125 8.296875 0 15.027344 6.730469 15.027344 15.03125v44.613281l84.066406 71.246094c6.332031 5.367187 7.117188 14.847656 1.75 21.179687-2.972656 3.507813-7.207031 5.316407-11.472656 5.316407zm0 0"
    fill="#bae5e5" />
  <path
    d="m88.296875 30.058594h-29.804687c-8.300782 0-15.03125-6.730469-15.03125-15.027344 0-8.300781 6.730468-15.03125 15.03125-15.03125h29.804687c8.300781 0 15.03125 6.730469 15.03125 15.03125 0 8.296875-6.730469 15.027344-15.03125 15.027344zm0 0"
    fill="#cdf5ff" />
  <g fill="#abddff">
    <path
      d="m339.328125 431.789062h-29.808594c-8.300781 0-15.03125-6.730468-15.03125-15.03125 0-8.300781 6.730469-15.027343 15.03125-15.027343h29.808594c8.300781 0 15.027344 6.726562 15.027344 15.027343 0 8.300782-6.726563 15.03125-15.027344 15.03125zm0 0" />
    <path
      d="m496.96875 49.003906h-30.816406c-8.300782 0-15.03125-6.730468-15.03125-15.03125 0-8.300781 6.730468-15.027344 15.03125-15.027344h30.816406c8.300781 0 15.03125 6.726563 15.03125 15.027344 0 8.300782-6.730469 15.03125-15.03125 15.03125zm0 0" />
  </g>
</svg>