<svg width="24" height="24" viewBox="0 0 24 24" fill="none" xmlns="http://www.w3.org/2000/svg">
  <path
    d="M12 24C18.6274 24 24 18.6274 24 12C24 5.37258 18.6274 0 12 0C5.37258 0 0 5.37258 0 12C0 18.6274 5.37258 24 12 24Z"
    fill="#FF814F" />
  <path
    d="M17.0286 5.25834C16.9586 5.25851 16.8899 5.23996 16.8296 5.20462C15.1694 4.31826 13.734 3.94223 12.0133 3.94223C10.3011 3.94223 8.67539 4.36302 7.19669 5.20462C6.98757 5.3225 6.72982 5.24043 6.60862 5.02406C6.55454 4.91963 6.54229 4.79858 6.57445 4.6855C6.60668 4.57242 6.68079 4.47579 6.78182 4.41525C8.37665 3.51322 10.1798 3.04159 12.0133 3.04692C13.8548 3.04692 15.4634 3.46772 17.2276 4.40779C17.3305 4.46423 17.4071 4.55865 17.441 4.67079C17.4749 4.78294 17.4635 4.90387 17.409 5.00765C17.3763 5.08133 17.323 5.1441 17.2556 5.18853C17.1881 5.23297 17.1094 5.25719 17.0286 5.25834ZM4.65443 9.95869C4.56462 9.9581 4.47708 9.92995 4.40381 9.87811C4.30842 9.80746 4.24429 9.70261 4.2249 9.5857C4.20551 9.4688 4.23236 9.34897 4.2998 9.25139C5.15606 7.99802 6.24504 7.01317 7.5427 6.32376C10.2578 4.87484 13.734 4.8644 16.4577 6.3148C17.755 7.00422 18.8443 7.98011 19.7006 9.22453C19.7678 9.32217 19.7945 9.442 19.7751 9.55878C19.7557 9.67562 19.6918 9.7804 19.5966 9.85125C19.5505 9.8857 19.4977 9.91029 19.4417 9.92352C19.3856 9.93676 19.3273 9.93844 19.2706 9.92839C19.2139 9.91827 19.1598 9.89673 19.1118 9.865C19.0637 9.83321 19.0228 9.79202 18.9913 9.74381C18.2133 8.61572 17.2276 7.72942 16.0601 7.11166C13.5784 5.79552 10.4048 5.79552 7.93176 7.12061C6.75562 7.74733 5.76993 8.64258 4.99187 9.76918C4.95828 9.82848 4.90913 9.87746 4.84967 9.91087C4.79014 9.94428 4.72264 9.96083 4.65443 9.95869ZM10.0588 20.7666C10.0016 20.7671 9.94496 20.7554 9.89276 20.7323C9.84056 20.7091 9.79394 20.675 9.75614 20.6323C9.00382 19.8519 8.59608 19.349 8.01813 18.2672C7.41962 17.166 7.11025 15.823 7.11025 14.3815C7.11025 11.7225 9.30645 9.5558 12.0047 9.5558C14.7029 9.5558 16.9006 11.7225 16.9006 14.3815C16.9023 14.4392 16.8924 14.4966 16.8714 14.5504C16.8505 14.6042 16.8189 14.6532 16.7786 14.6946C16.7383 14.736 16.6901 14.7689 16.6368 14.7914C16.5835 14.8139 16.5262 14.8255 16.4684 14.8255C16.4105 14.8255 16.3532 14.8139 16.3 14.7914C16.2467 14.7689 16.1984 14.736 16.1582 14.6946C16.1178 14.6532 16.0862 14.6042 16.0653 14.5504C16.0444 14.4966 16.0344 14.4392 16.0361 14.3815C16.0361 12.2149 14.2286 10.4511 12.0065 10.4511C9.78454 10.4511 7.97514 12.2149 7.97514 14.3815C7.97514 15.6708 8.25157 16.8615 8.77901 17.8285C9.33264 18.8581 9.71418 19.2968 10.379 19.9951C10.4577 20.082 10.5015 20.195 10.5015 20.3123C10.5015 20.4294 10.4577 20.5424 10.379 20.6293C10.2941 20.7147 10.1792 20.7639 10.0588 20.7666ZM16.2591 19.1103C15.23 19.1103 14.3221 18.8417 13.5784 18.3134C12.9448 17.8706 12.4272 17.2824 12.0692 16.5984C11.7112 15.9144 11.5231 15.1546 11.521 14.383C11.5186 14.3249 11.528 14.2669 11.5486 14.2125C11.5692 14.158 11.6007 14.1083 11.6411 14.0663C11.6815 14.0243 11.73 13.9909 11.7837 13.9681C11.8374 13.9452 11.8951 13.9335 11.9534 13.9335C12.0118 13.9335 12.0696 13.9452 12.1232 13.9681C12.1769 13.9909 12.2254 14.0243 12.2658 14.0663C12.3062 14.1083 12.3376 14.158 12.3583 14.2125C12.3789 14.2669 12.3883 14.3249 12.3859 14.383C12.3873 15.0097 12.5406 15.6269 12.8327 16.1818C13.1247 16.7367 13.5468 17.2131 14.0633 17.5703C14.6771 18.0001 15.395 18.2045 16.2598 18.2045C16.561 18.1992 16.8613 18.1692 17.1576 18.115C17.391 18.0702 17.6158 18.2314 17.6589 18.4821C17.6808 18.5977 17.6558 18.7174 17.5894 18.8148C17.523 18.9121 17.4206 18.9792 17.3046 19.0013C16.9601 19.0692 16.6102 19.1052 16.2591 19.1088V19.1103ZM14.5207 20.9531C14.4827 20.9516 14.4451 20.9455 14.4085 20.9352C13.0334 20.5413 12.1341 20.013 11.1915 19.0551C9.98056 17.8106 9.31507 16.1542 9.31507 14.3815C9.31507 12.9311 10.5084 11.7493 11.9781 11.7493C13.4479 11.7493 14.6415 12.9311 14.6415 14.3815C14.6415 15.3395 15.4459 16.1184 16.4401 16.1184C17.4344 16.1184 18.2387 15.3395 18.2387 14.3815C18.2387 11.0062 15.4282 8.26655 11.9695 8.26655C9.51369 8.26655 7.26549 9.68114 6.25399 11.8747C5.91732 12.5999 5.74374 13.4504 5.74374 14.3815C5.74374 15.0799 5.80398 16.1811 6.32279 17.6136C6.40962 17.8464 6.29698 18.106 6.07217 18.1866C6.01874 18.2069 5.96174 18.2162 5.90461 18.214C5.84749 18.2118 5.7914 18.198 5.73972 18.1736C5.68803 18.1492 5.64187 18.1147 5.60393 18.072C5.566 18.0294 5.53708 17.9796 5.51892 17.9255C5.10172 16.7902 4.88799 15.5907 4.88747 14.3815C4.88747 13.3072 5.08648 12.3298 5.47554 11.4807C6.62581 8.9813 9.17663 7.36235 11.9695 7.36235C15.9041 7.36235 19.1036 10.5048 19.1036 14.3726C19.1036 15.823 17.9102 17.0048 16.4401 17.0048C14.97 17.0048 13.7767 15.823 13.7767 14.3726C13.7771 13.4146 12.9728 12.6342 11.9785 12.6342C10.9842 12.6342 10.18 13.4131 10.18 14.3711C10.18 15.9006 10.7508 17.3346 11.7971 18.4089C12.62 19.2505 13.4056 19.7146 14.6247 20.0653C14.8582 20.1279 14.9879 20.3786 14.9274 20.6114C14.9085 20.7059 14.8579 20.7912 14.7841 20.8533C14.7102 20.9154 14.6173 20.9506 14.5207 20.9531Z"
    fill="white" />
</svg>